<?xml version="1.0" standalone="no"?>
<!DOCTYPE svg PUBLIC "-//W3C//DTD SVG 20010904//EN"
 "http://www.w3.org/TR/2001/REC-SVG-20010904/DTD/svg10.dtd">
<svg version="1.0" xmlns="http://www.w3.org/2000/svg"
 width="96.000000pt" height="96.000000pt" viewBox="0 0 96.000000 96.000000"
 preserveAspectRatio="xMidYMid meet">

<g transform="translate(0.000000,96.000000) scale(0.100000,-0.100000)"
fill="#000000" stroke="none">
<path d="M211 884 c-26 -22 -31 -33 -31 -70 0 -25 -7 -58 -15 -74 -9 -17 -19
-71 -24 -122 -5 -60 -17 -112 -32 -146 -19 -44 -21 -57 -12 -81 11 -31 -3
-106 -32 -167 -11 -24 -13 -53 -8 -128 l6 -96 384 0 383 0 0 28 c0 15 -6 39
-14 53 -9 17 -12 45 -8 78 4 43 1 58 -17 81 -26 36 -26 42 0 66 26 23 54 78
64 124 12 54 7 171 -10 225 -14 49 -14 50 10 75 47 49 29 132 -35 165 -44 23
-78 19 -111 -14 -29 -30 -30 -30 -72 -15 -62 22 -155 28 -231 15 -62 -11 -69
-10 -93 9 -35 27 -65 25 -102 -6z m-1 -278 c0 -40 -8 -66 -21 -66 -10 0 -12
83 -2 93 15 15 23 5 23 -27z m364 18 c9 -8 16 -31 16 -50 0 -20 7 -42 15 -51
18 -18 15 -38 -6 -38 -8 0 -15 10 -17 22 -3 19 -8 21 -38 16 -42 -7 -64 10
-64 50 0 57 58 88 94 51z m-336 -176 c-6 -17 -40 -17 -45 0 -3 7 5 12 22 12
17 0 25 -5 23 -12z m159 -93 c-10 -7 -17 -17 -16 -22 7 -28 -157 -47 -202 -22
-20 10 -20 11 -2 26 10 8 12 12 6 8 -7 -3 -19 -3 -25 2 -8 5 2 10 27 14 27 5
46 2 60 -7 11 -8 32 -14 48 -14 16 0 26 -4 22 -10 -3 -6 1 -7 10 -4 9 4 13 9
10 13 -7 7 67 41 75 34 3 -3 -3 -11 -13 -18z m-231 -92 c-7 -7 -26 7 -26 19 0
6 6 6 15 -2 9 -7 13 -15 11 -17z m44 -33 c0 -5 -4 -10 -10 -10 -5 0 -10 5 -10
10 0 6 5 10 10 10 6 0 10 -4 10 -10z m-26 -95 c-23 -35 -29 -25 -7 13 10 18
19 27 21 22 2 -5 -4 -20 -14 -35z"/>
</g>
</svg>
